<?xml version="1.0" encoding="UTF-8" standalone="no"?>
<!-- Created with Inkscape (http://www.inkscape.org/) -->

<svg
   width="66"
   height="66"
   viewBox="0 0 17.4625 17.4625"
   version="1.1"
   id="svg1"
   inkscape:version="1.4.2 (f4327f4, 2025-05-13)"
   sodipodi:docname="new-favicon.svg"
   xmlns:inkscape="http://www.inkscape.org/namespaces/inkscape"
   xmlns:sodipodi="http://sodipodi.sourceforge.net/DTD/sodipodi-0.dtd"
   xmlns="http://www.w3.org/2000/svg"
   xmlns:svg="http://www.w3.org/2000/svg">
  <sodipodi:namedview
     id="namedview1"
     pagecolor="#ffffff"
     bordercolor="#000000"
     borderopacity="0.25"
     inkscape:showpageshadow="2"
     inkscape:pageopacity="0.0"
     inkscape:pagecheckerboard="0"
     inkscape:deskcolor="#d1d1d1"
     inkscape:document-units="px"
     inkscape:zoom="1"
     inkscape:cx="33.5"
     inkscape:cy="32.5"
     inkscape:window-width="1920"
     inkscape:window-height="991"
     inkscape:window-x="-9"
     inkscape:window-y="-9"
     inkscape:window-maximized="1"
     inkscape:current-layer="layer1" />
  <defs
     id="defs1" />
  <g
     inkscape:label="Layer 1"
     inkscape:groupmode="layer"
     id="layer1"
     transform="translate(-96.04376,-139.96459)">
    <path
       id="path17"
       style="display:inline;fill:#ff4500;stroke-width:0.713512"
       d="m 104.77501,139.96459 c -4.83711,0 -8.73125,3.89413 -8.73125,8.73125 0,4.83711 3.89414,8.73125 8.73125,8.73125 4.83712,0 8.73125,-3.89414 8.73125,-8.73125 0,-4.83712 -3.89413,-8.73125 -8.73125,-8.73125 z m -3.63492,3.63078 3.63492,1.36323 3.63492,-1.36323 v 10.08724 c 0,0.0909 -0.0455,0.11369 -0.11368,0.11369 h -2.72645 c -0.0678,0 -0.11317,-0.0228 -0.11317,-0.11369 v -4.54391 h -1.36323 v 4.54391 c 0,0.0909 -0.045,0.11369 -0.11317,0.11369 h -2.72645 c -0.0678,0 -0.11369,-0.0228 -0.11369,-0.11369 z" />
  </g>
</svg>
