<?xml version="1.0" encoding="UTF-8" standalone="no"?>
<!-- Created with Inkscape (http://www.inkscape.org/) -->

<svg
   width="215.41252"
   height="77"
   viewBox="0 0 56.994557 20.372918"
   version="1.1"
   id="svg11017"
   inkscape:version="1.4.2 (f4327f4, 2025-05-13)"
   sodipodi:docname="logo-mark.svg"
   xmlns:inkscape="http://www.inkscape.org/namespaces/inkscape"
   xmlns:sodipodi="http://sodipodi.sourceforge.net/DTD/sodipodi-0.dtd"
   xmlns="http://www.w3.org/2000/svg"
   xmlns:svg="http://www.w3.org/2000/svg">
  <sodipodi:namedview
     id="namedview11019"
     pagecolor="#ffffff"
     bordercolor="#666666"
     borderopacity="1.0"
     inkscape:pageshadow="2"
     inkscape:pageopacity="0.0"
     inkscape:pagecheckerboard="true"
     inkscape:document-units="px"
     showgrid="false"
     units="px"
     showborder="true"
     inkscape:zoom="1"
     inkscape:cx="2"
     inkscape:cy="179.5"
     inkscape:window-width="1920"
     inkscape:window-height="991"
     inkscape:window-x="-9"
     inkscape:window-y="-9"
     inkscape:window-maximized="1"
     inkscape:current-layer="layer1"
     fit-margin-top="0"
     fit-margin-left="0"
     fit-margin-right="0"
     fit-margin-bottom="0"
     inkscape:snap-global="true"
     showguides="true"
     inkscape:guide-bbox="true"
     inkscape:snap-bbox="true"
     inkscape:bbox-paths="true"
     inkscape:bbox-nodes="true"
     inkscape:snap-bbox-edge-midpoints="true"
     inkscape:snap-bbox-midpoints="true"
     inkscape:object-paths="true"
     inkscape:snap-intersection-paths="true"
     inkscape:snap-smooth-nodes="true"
     inkscape:snap-midpoints="true"
     inkscape:snap-object-midpoints="true"
     inkscape:snap-center="true"
     inkscape:showpageshadow="2"
     inkscape:deskcolor="#d1d1d1" />
  <defs
     id="defs11014">
    <rect
       x="50"
       y="20"
       width="48"
       height="41"
       id="rect2" />
    <rect
       x="-230"
       y="199"
       width="147"
       height="100"
       id="rect7" />
    <rect
       x="283"
       y="275"
       width="102"
       height="99"
       id="rect5" />
    <rect
       x="-250"
       y="280"
       width="121"
       height="94"
       id="rect4" />
    <rect
       x="-180.85507"
       y="-131.41942"
       width="124.75065"
       height="135.82188"
       id="rect1919" />
  </defs>
  <g
     inkscape:label="Layer 1"
     inkscape:groupmode="layer"
     id="layer1"
     transform="translate(145.1145,14.611092)"
     style="display:inline">
    <g
       id="g1">
      <path
         id="path3259"
         style="font-size:33.3003px;line-height:1.25;font-family:SCHABO;-inkscape-font-specification:SCHABO;letter-spacing:2.3204px;fill:#ff4500;fill-opacity:1;stroke-width:0.265272"
         d="m -126.31731,-5.6726182 -4.07478,1.528211 -4.07444,-1.528211 V 5.634572 c 0,0.1018832 0.0512,0.1272526 0.12725,0.1272526 h 3.05605 c 0.0765,0 0.12725,-0.025383 0.12725,-0.1272526 V 0.54137553 h 1.5278 V 5.634572 c 0,0.1018832 0.0512,0.1272526 0.12725,0.1272526 h 3.05599 c 0.0765,0 0.12765,-0.025383 0.12765,-0.1272526 z" />
      <path
         id="path3305"
         style="font-size:33.3003px;line-height:1.25;font-family:SCHABO;-inkscape-font-specification:SCHABO;letter-spacing:2.3204px;fill:#000000;stroke-width:0.265272"
         d="m -126.31739,-14.611092 -4.07477,1.527814 -4.07446,-1.527814 v 1.527814 l 4.07446,1.528197 4.07477,-1.528197 z" />
      <path
         d="m -139.51192,-14.611092 h -5.47525 c -0.0764,0 -0.12733,0.05094 -0.12733,0.127329 V 5.6344573 c 0,0.076393 0.0512,0.1273298 0.12733,0.1273298 h 3.05599 c 0.0765,0 0.12733,-0.050936 0.12733,-0.1273298 v -8.2510182 h 2.29193 c 2.03727,0 2.54658,-1.5279681 2.54658,-4.074577 v -3.8453851 c 0,-2.546609 -0.50931,-4.074569 -2.54658,-4.074569 z m -0.76397,8.9385961 h -1.52796 v -5.8826691 h 1.52796 z"
         id="path3251"
         style="font-size:33.3003px;line-height:1.25;font-family:SCHABO;-inkscape-font-specification:SCHABO;letter-spacing:2.3204px;fill:#000000;stroke-width:0.265272" />
      <path
         d="m -114.62514,5.6089848 c -0.30559,-0.5093182 -0.30559,-1.4006315 -0.30559,-1.8335581 v -6.6211804 c 0,-1.3751725 -0.81498,-1.7826333 -1.19697,-1.8335648 v -0.5093182 c 0.40745,-0.050936 1.19697,-0.4583935 1.19697,-1.833557 v -3.5143293 c 0,-2.546609 -0.50939,-4.074569 -2.54667,-4.074569 h -5.47516 c -0.0765,0 -0.12732,0.05094 -0.12732,0.127329 V 5.6344573 c 0,0.076393 0.0512,0.1273298 0.12732,0.1273298 h 3.05591 c 0.0765,0 0.12733,-0.050936 0.12733,-0.1273298 v -9.0404674 h 1.52795 l -0.0512,7.1814368 c 0,0.4838581 0,1.3751714 0.33106,1.8844963 0.0252,0.050936 0.10186,0.1018607 0.15279,0.1018607 h 3.10692 c 0.0765,0 0.12733,-0.076404 0.0765,-0.1528023 z m -5.14418,-12.0709299 v -5.0932199 h 1.52795 v 5.0932199 z"
         id="path3253"
         style="font-size:33.3003px;line-height:1.25;font-family:SCHABO;-inkscape-font-specification:SCHABO;letter-spacing:2.3204px;fill:#000000;stroke-width:0.265272" />
      <path
         d="m -112.23953,-14.611092 c -0.0765,0 -0.12733,0.05094 -0.12733,0.127329 v 2.801268 c 0,0.0764 0.0512,0.12733 0.12733,0.12733 h 1.90994 V 5.6344573 c 0,0.076393 0.0512,0.1273298 0.12733,0.1273298 h 3.05598 c 0.0765,0 0.12733,-0.050936 0.12733,-0.1273298 V -11.555165 h 1.90994 c 0.0765,0 0.12733,-0.05094 0.12733,-0.12733 v -2.801268 c 0,-0.07639 -0.0512,-0.127329 -0.12733,-0.127329 z"
         id="path3255"
         style="font-size:33.3003px;line-height:1.25;font-family:SCHABO;-inkscape-font-specification:SCHABO;letter-spacing:2.3204px;fill:#000000;stroke-width:0.265272" />
      <path
         d="m -98.009358,-7.4551214 c 0,0.076393 0.05123,0.1273287 0.127329,0.1273287 h 3.055976 c 0.07647,0 0.12733,-0.050936 0.12733,-0.1273287 v -3.0814016 c 0,-2.546609 -0.509317,-4.074569 -2.54666,-4.074569 h -3.055907 c -2.03727,0 -2.54659,1.52796 -2.54659,4.074569 v 2.7503447 c 0,2.0627509 0.73852,2.97953 2.29193,3.7435134 l 2.037275,1.018642 c 0.534777,0.2546664 0.509317,0.7385178 0.509317,1.0186421 v 4.7112329 h -1.527951 v -5.1186859 c 0,-0.076404 -0.05123,-0.1273299 -0.127337,-0.1273299 h -3.055904 c -0.0765,0 -0.12733,0.050936 -0.12733,0.1273299 v 4.1000439 c 0,2.5466089 0.50932,4.074577 2.54659,4.074577 h 3.055907 c 2.037343,0 2.54666,-1.5279681 2.54666,-4.074577 v -3.7689882 c 0,-2.0627509 -0.738509,-2.9795299 -2.292001,-3.7435123 l -2.037268,-1.0186431 c -0.534785,-0.2546664 -0.509317,-0.7385177 -0.509317,-1.018642 v -3.6925895 h 1.527951 z"
         id="path3257"
         style="font-size:33.3003px;line-height:1.25;font-family:SCHABO;-inkscape-font-specification:SCHABO;letter-spacing:2.3204px;fill:#000000;stroke-width:0.265272" />
      <path
         id="path3261"
         style="font-size:33.3003px;line-height:1.25;font-family:SCHABO;-inkscape-font-specification:SCHABO;letter-spacing:2.3204px;fill:#000000;stroke-width:0.265272"
         d="m -126.31731,-8.6521099 -4.07485,1.5281979 -4.07438,-1.5281979 v 1.5281979 l 4.07438,1.5278055 4.07485,-1.5278055 z" />
      <path
         style="font-size:33.3003px;line-height:1.25;font-family:SCHABO;-inkscape-font-specification:SCHABO;letter-spacing:2.3204px;fill:#000000;stroke-width:0.265272"
         d="m -134.46662,-11.631602 v 1.528198 l 4.07438,1.5278146 4.07485,-1.5278146 v -1.528198 l -4.07485,1.528198 z"
         id="path3263" />
      <path
         d="m -90.60448,-9.6420063 q -0.541589,0 -0.995173,-0.1827872 -0.453567,-0.1827855 -0.79207,-0.5145105 -0.331717,-0.338493 -0.514504,-0.792074 -0.182787,-0.453582 -0.182787,-0.995171 0,-0.54159 0.182787,-0.995171 0.182787,-0.453582 0.514504,-0.785306 0.338503,-0.338493 0.79207,-0.521279 0.453584,-0.182787 0.995173,-0.182787 0.514509,0 0.961321,0.182787 0.453582,0.182786 0.792075,0.521279 0.345263,0.331724 0.534819,0.785306 0.196327,0.453581 0.196327,0.995171 0,0.541589 -0.182787,0.995171 -0.182786,0.453581 -0.521279,0.792074 -0.331725,0.331725 -0.785306,0.5145105 -0.453581,0.1827872 -0.99517,0.1827872 z m 0,-0.3588037 q 0.433271,0 0.812384,-0.155706 0.379112,-0.155708 0.670218,-0.440042 0.291103,-0.291104 0.45358,-0.676988 0.162477,-0.385882 0.162477,-0.853003 0,-0.440042 -0.155707,-0.825924 -0.155707,-0.385883 -0.440041,-0.676988 -0.277565,-0.291105 -0.663448,-0.453581 -0.379113,-0.169248 -0.839463,-0.169248 -0.609282,0 -1.089951,0.277565 -0.473884,0.270795 -0.744676,0.751457 -0.270797,0.47389 -0.270797,1.096719 0,0.440041 0.155715,0.825923 0.155698,0.385884 0.433263,0.676988 0.284333,0.291104 0.67022,0.460351 0.385878,0.162477 0.846226,0.162477 z m -0.927467,-0.643137 v -2.958434 h 0.866543 q 0.555124,0 0.812378,0.216636 0.257256,0.216636 0.257256,0.656677 0,0.318185 -0.162477,0.50774 -0.162477,0.182787 -0.365573,0.264026 l 0.785306,1.313355 h -0.58221 l -0.676988,-1.171189 h -0.419727 v 1.171189 z m 0.852994,-1.59092 q 0.264028,0 0.412965,-0.135398 0.148937,-0.135397 0.148937,-0.345263 0,-0.236945 -0.135397,-0.345264 -0.135391,-0.108313 -0.433273,-0.108313 h -0.331718 v 0.934242 z"
         id="text2"
         style="font-size:37.3333px;line-height:39.7px;font-family:GROTESKIA;-inkscape-font-specification:GROTESKIA;letter-spacing:0px;white-space:pre;fill:#000000;stroke-width:0"
         aria-label="®" />
    </g>
  </g>
</svg>
